<?xml version="1.0" encoding="UTF-8"?>
<svg width="14px" height="15px" viewBox="0 0 14 15" version="1.1" xmlns="http://www.w3.org/2000/svg" xmlns:xlink="http://www.w3.org/1999/xlink">
    <!-- Generator: Sketch 50.2 (55047) - http://www.bohemiancoding.com/sketch -->
    <title>right_small icon_gift</title>
    <desc>Created with Sketch.</desc>
    <defs>
        <polygon id="path-1" points="0.00160305344 0.0162705528 13.9784924 0.0162705528 13.9784924 14.9742083 0.00160305344 14.9742083"></polygon>
    </defs>
    <g id="Page-1" stroke="none" stroke-width="1" fill="none" fill-rule="evenodd">
        <g id="Artboard-2-Copy-4" transform="translate(-1543.000000, -785.000000)">
            <g id="Group-20" transform="translate(1540.000000, 782.000000)">
                <g id="优惠">
                    <g id="Group-7" transform="translate(3.000000, 3.000000)">
                        <path d="M8.69645802,12.8591824 L5.22370992,12.8591824 C3.89584733,12.8591824 2.81608397,11.8157917 2.81608397,10.5327883 L2.81608397,7.17699656 C2.81608397,5.89388985 3.89584733,4.85049914 5.22370992,4.85049914 L8.71107252,4.85049914 C10.0388015,4.85049914 11.1185649,5.89388985 11.1185649,7.17699656 L11.1185649,10.5468072 C11.1185649,11.8157917 10.0242939,12.8591824 8.69645802,12.8591824 Z" id="Fill-1" fill-opacity="0.5" fill="#D49256"></path>
                        <mask id="mask-2" fill="white">
                            <use xlink:href="#path-1"></use>
                        </mask>
                        <g id="Clip-3"></g>
                        <path d="M6.98925954,14.9742083 C6.74116031,14.9742083 6.5515458,14.790852 6.5515458,14.551136 L6.5515458,3.46876936 C6.5515458,3.22902754 6.74116031,3.04569707 6.98925954,3.04569707 C7.23733206,3.04569707 7.42694656,3.22902754 7.42694656,3.46876936 L7.42694656,14.551136 C7.42694656,14.790852 7.23733206,14.9742083 6.98925954,14.9742083 Z" id="Fill-2" fill="#273343" mask="url(#mask-2)"></path>
                        <path d="M12.8550191,7.26162651 L1.1235,7.26162651 C0.496145038,7.26162651 0,6.76804647 0,6.17586919 L0,4.13142857 C0,3.52512909 0.510652672,3.04569707 1.1235,3.04569707 L12.8550191,3.04569707 C13.4824542,3.04569707 13.9784924,3.53925129 13.9784924,4.13142857 L13.9784924,6.17586919 C13.9784924,6.76804647 13.4824542,7.26162651 12.8550191,7.26162651 Z M1.1235,3.89171256 C0.97759542,3.89171256 0.875534351,4.00448365 0.875534351,4.13142857 L0.875534351,6.17586919 C0.875534351,6.31685886 0.992209924,6.4155852 1.1235,6.4155852 L12.8550191,6.4155852 C13.0008969,6.4155852 13.1029847,6.30273666 13.1029847,6.17586919 L13.1029847,4.13142857 C13.1029847,3.99046472 12.9863092,3.89171256 12.8550191,3.89171256 L1.1235,3.89171256 Z" id="Fill-4" fill="#273343" mask="url(#mask-2)"></path>
                        <path d="M12.1692328,14.9742083 L1.80928626,14.9742083 C1.1819313,14.9742083 0.68578626,14.480654 0.68578626,13.8884509 L0.68578626,7.50123924 C0.68578626,6.89501721 1.19643893,6.4155852 1.80928626,6.4155852 L12.1546183,6.4155852 C12.7820534,6.4155852 13.2780916,6.90903614 13.2780916,7.50123924 L13.2780916,13.874432 C13.2927061,14.480654 12.7820534,14.9742083 12.1692328,14.9742083 Z M1.80928626,7.26162651 C1.66338168,7.26162651 1.56132061,7.37437177 1.56132061,7.50123924 L1.56132061,13.874432 C1.56132061,14.0154217 1.67799618,14.1140706 1.80928626,14.1140706 L12.1546183,14.1140706 C12.3005229,14.1140706 12.4026908,14.0012995 12.4026908,13.874432 L12.4026908,7.50123924 C12.4026908,7.36024957 12.2859084,7.26162651 12.1546183,7.26162651 L1.80928626,7.26162651 Z M6.96003053,3.89171256 C6.75577481,3.89171256 6.58066794,3.75072289 6.5369313,3.55337349 C6.40564122,2.93295181 5.71985496,2.17151463 4.78599618,1.59345955 C4.12933206,1.19863167 3.41442366,0.930774527 2.81608397,0.888407917 C2.3200458,0.846144578 1.95529771,0.94489673 1.80928626,1.15636833 C1.57580153,1.5088296 1.9260687,2.35487091 2.90366412,3.1303012 C3.0933855,3.28541308 3.108,3.55337349 2.96198855,3.7225043 C2.80157634,3.90583477 2.52427481,3.91995697 2.34916794,3.77886403 C1.06514885,2.73557659 0.554496183,1.5088296 1.07976336,0.69105852 C1.40080153,0.197581756 2.05735878,-0.0421342513 2.90366412,0.028373494 C3.64788168,0.0988554217 4.47957252,0.394956971 5.26741985,0.874388985 C6.40564122,1.56521515 7.22271756,2.52400172 7.39785115,3.37001721 C7.44156107,3.59563683 7.29565649,3.82123064 7.06219847,3.87759036 C7.01846183,3.87759036 6.98925954,3.89171256 6.96003053,3.89171256 Z" id="Fill-5" fill="#273343" mask="url(#mask-2)"></path>
                        <path d="M6.96003053,3.89171256 C6.9309084,3.89171256 6.90167939,3.89171256 6.87255725,3.87759036 C6.63909924,3.83535284 6.47858015,3.60973322 6.5369313,3.37001721 C6.72657252,2.52400172 7.54375573,1.56521515 8.66722901,0.874388985 C10.4181908,-0.197246127 12.2129427,-0.267728055 12.8550191,0.69105852 C13.3802863,1.49473322 12.8696069,2.73557659 11.5855076,3.77886403 C11.3958664,3.9339759 11.1185649,3.90583477 10.9726603,3.7225043 C10.8121679,3.53925129 10.8413702,3.27129088 11.0310115,3.1303012 C12.0087137,2.34074871 12.3588473,1.5088296 12.1253893,1.15636833 C11.8189656,0.69105852 10.4911298,0.789784854 9.14878626,1.60758176 C8.22954198,2.17151463 7.54375573,2.93295181 7.39785115,3.56739243 C7.35400763,3.75072289 7.16436641,3.89171256 6.96003053,3.89171256 Z" id="Fill-6" fill="#273343" mask="url(#mask-2)"></path>
                    </g>
                </g>
            </g>
        </g>
    </g>
</svg>