<?xml version="1.0" encoding="UTF-8"?>
<svg width="16px" height="16px" viewBox="0 0 16 16" version="1.1" xmlns="http://www.w3.org/2000/svg" xmlns:xlink="http://www.w3.org/1999/xlink">
    <!-- Generator: Sketch 50.2 (55047) - http://www.bohemiancoding.com/sketch -->
    <title>top_icon_time</title>
    <desc>Created with Sketch.</desc>
    <defs></defs>
    <g id="Page-1" stroke="none" stroke-width="1" fill="none" fill-rule="evenodd">
        <g id="Artboard-2-Copy-4" transform="translate(-1542.000000, -435.000000)">
            <g id="Group-7" transform="translate(1520.000000, 368.000000)">
                <g id="Group" transform="translate(20.000000, 65.000000)">
                    <g id="时间">
                        <g id="Group-15" transform="translate(2.000000, 2.000000)">
                            <path d="M7.99112152,15.9999531 C6.91352269,15.9999531 5.86583895,15.788205 4.88011713,15.372205 C3.92808199,14.9692064 3.07347584,14.3939092 2.34077892,13.6592679 C1.60798829,12.9246501 1.03074671,12.0718946 0.627841874,11.1199297 C0.21174817,10.1341142 0,9.08835139 0,8.00892533 C0,6.92940556 0.21174817,5.88364275 0.627841874,4.89792094 C1.03074671,3.9458858 1.60606735,3.09127965 2.34077892,2.35858272 C3.07347584,1.62579209 3.92808199,1.04855051 4.88011713,0.645645681 C5.86583895,0.229551977 6.91160176,0.0178038067 7.99112152,0.0178038067 C9.06872035,0.0178038067 10.1163104,0.229551977 11.1021259,0.645645681 C12.0540908,1.04855051 12.9086735,1.62387116 13.6414641,2.35858272 C14.3742782,3.09127965 14.9514026,3.9458858 15.3544012,4.89792094 C15.7704012,5.88364275 15.9821493,6.92940556 15.9821493,8.00892533 C15.9821493,9.08835139 15.7704012,10.1341142 15.3544012,11.1199297 C14.9514026,12.0718946 14.3761054,12.9264773 13.6414641,13.6592679 C12.9068463,14.392082 12.0540908,14.9692064 11.1021259,15.372205 C10.1163104,15.788205 9.06872035,15.9999531 7.99112152,15.9999531 Z M7.99112152,0.866717423 C4.05179502,0.866717423 0.848913616,4.07142606 0.848913616,8.00892533 C0.848913616,11.9463309 4.05362225,15.1510395 7.99112152,15.1510395 C11.9285271,15.1510395 15.1332357,11.9463309 15.1332357,8.00892533 C15.1332357,4.07142606 11.930448,0.866717423 7.99112152,0.866717423 Z" id="Fill-1" fill="#273343"></path>
                            <path d="M3.3302489,8.16074963 C3.3302489,10.7348521 5.41699561,12.8215286 7.99112152,12.8215286 C10.5652474,12.8215286 12.6519004,10.7348521 12.6519004,8.16074963 C12.6519004,5.58662372 10.5652474,3.49987701 7.99112152,3.49987701 C5.41699561,3.49987701 3.3302489,5.58662372 3.3302489,8.16074963 Z" id="Fill-2" fill-opacity="0.5" fill="#D49256"></path>
                            <path d="M7.42359004,8.84261201 C7.19115666,8.84261201 7,8.65143192 7,8.41902196 L7,4.42349634 C7,4.19106296 7.19115666,4 7.42359004,4 C7.65592972,4 7.84708638,4.19106296 7.84708638,4.42349634 L7.84708638,8.41902196 C7.84708638,8.65143192 7.65592972,8.84261201 7.42359004,8.84261201 Z" id="Fill-3" fill="#273343"></path>
                            <path d="M10.5476252,11.5476018 C10.3827291,11.7125915 10.1128609,11.7125915 9.94796486,11.5476018 L7.12367204,8.72340264 C6.95877599,8.55848316 6.95877599,8.28863836 7.12367204,8.12374231 C7.28866179,7.95875256 7.55850659,7.95875256 7.72340264,8.12374231 L10.5476252,10.9479414 C10.7126149,11.1147818 10.7126149,11.3827057 10.5476252,11.5476018 Z" id="Fill-4" fill="#273343"></path>
                        </g>
                    </g>
                </g>
            </g>
        </g>
    </g>
</svg>