<?xml version="1.0" encoding="UTF-8"?>
<svg width="14px" height="17px" viewBox="0 0 14 17" version="1.1" xmlns="http://www.w3.org/2000/svg" xmlns:xlink="http://www.w3.org/1999/xlink">
    <!-- Generator: Sketch 50.2 (55047) - http://www.bohemiancoding.com/sketch -->
    <title>top_icon_address</title>
    <desc>Created with Sketch.</desc>
    <defs></defs>
    <g id="Page-1" stroke="none" stroke-width="1" fill="none" fill-rule="evenodd">
        <g id="Artboard-2-Copy-4" transform="translate(-1543.000000, -497.000000)">
            <g id="Group-6" transform="translate(1520.000000, 476.000000)">
                <g id="Group" transform="translate(20.000000, 20.000000)">
                    <g id="地址">
                        <g id="Group-17" transform="translate(3.000000, 1.000000)">
                            <path d="M13.5931367,7.33858199 C13.5931367,3.51939261 10.6354584,0.425588915 6.98416086,0.425588915 C6.02337802,0.425588915 5.10748525,0.642309469 4.28482574,1.02859815 C4.80428954,2.38557506 5.22462735,3.78640647 5.53397855,5.21542725 C5.93322252,4.88571363 6.43478284,4.68772055 6.98416086,4.68772055 C8.28143164,4.68772055 9.32929223,5.78702771 9.32929223,7.14074596 C9.32929223,8.49450346 8.27835389,9.59381062 6.98416086,9.59381062 C6.82509383,9.59381062 6.67203217,9.5749261 6.52189812,9.54347806 C7.21243968,11.6856744 7.57576408,14.0695612 7.43163539,16.2839584 C8.91803753,15.3541016 13.5931367,12.046836 13.5931367,7.33858199 Z" id="Fill-1" fill-opacity="0.5" fill="#D49256"></path>
                            <path d="M11.9236461,2.17191686 C10.6054316,0.793032333 8.85190349,0.0329792148 6.98416086,0.0329792148 C5.11656836,0.0329792148 3.36600536,0.793032333 2.04482574,2.17191686 C0.72661126,3.55084065 0,5.38503464 0,7.33858199 C0,8.68601848 0.363324397,10.0304319 1.08393029,11.3370762 C1.65147453,12.3672055 2.43821448,13.3754273 3.42609651,14.3365358 C5.09562466,15.9573072 6.74109383,16.8681224 6.81308311,16.9058522 L6.98723861,17 L7.16143164,16.9058522 C7.2304933,16.8681224 8.87592493,15.9573072 10.5483807,14.3365358 C11.5362627,13.3786467 12.3230027,12.3702679 12.8905469,11.3370762 C13.6081126,10.0304319 13.9744772,8.68601848 13.9744772,7.33858199 C13.9684718,5.388097 13.2418606,3.553903 11.9236461,2.17191686 Z M10.0469705,13.7460901 C8.75585523,15.0024411 7.44657373,15.831515 6.98416086,16.10803 C6.52482574,15.8347344 5.22462735,15.0118245 3.93647721,13.7586928 C2.48321716,12.3483603 0.750670241,10.0868499 0.750670241,7.33858199 C0.750670241,3.74235566 3.54616622,0.818198614 6.98416086,0.818198614 C10.4223056,0.818198614 13.2178016,3.74235566 13.2178016,7.33858199 C13.2178016,10.0837875 11.4941877,12.3389769 10.0469705,13.7460901 Z" id="Fill-2" fill="#273343"></path>
                            <path d="M6.98416086,4.29511085 C5.48282038,4.29511085 4.26388204,5.57352656 4.26388204,7.14074596 C4.26388204,8.71118476 5.48589812,9.98642032 6.98416086,9.98642032 C8.48550134,9.98642032 9.70462735,8.7081224 9.70462735,7.14074596 C9.70462735,5.57352656 8.48550134,4.29511085 6.98416086,4.29511085 Z M6.98416086,9.20442032 C5.89730295,9.20442032 5.01455228,8.28084527 5.01455228,7.14396536 C5.01455228,6.00692841 5.89730295,5.08354965 6.98416086,5.08354965 C8.0711689,5.08354965 8.9539571,6.00692841 8.9539571,7.14396536 C8.9539571,8.28084527 8.0711689,9.20442032 6.98416086,9.20442032 Z" id="Fill-3" fill="#273343"></path>
                        </g>
                    </g>
                </g>
            </g>
        </g>
    </g>
</svg>