<?xml version="1.0" encoding="UTF-8"?>
<svg width="18px" height="18px" viewBox="0 0 18 18" version="1.1" xmlns="http://www.w3.org/2000/svg" xmlns:xlink="http://www.w3.org/1999/xlink">
    <!-- Generator: Sketch 50.2 (55047) - http://www.bohemiancoding.com/sketch -->
    <title>top_icon_phone</title>
    <desc>Created with Sketch.</desc>
    <defs></defs>
    <g id="Page-1" stroke="none" stroke-width="1" fill="none" fill-rule="evenodd">
        <g id="Artboard-2-Copy-4" transform="translate(-1740.000000, -434.000000)">
            <g id="Group-7" transform="translate(1520.000000, 368.000000)">
                <g id="Group" transform="translate(219.000000, 65.000000)">
                    <g id="电话">
                        <g id="Group-16" transform="translate(1.000000, 1.000000)">
                            <path d="M0,11.0318488 C0,14.8802488 3.04545,17.999978 6.80230714,17.999978 C10.5591,17.999978 13.60455,14.8802488 13.60455,11.0318488 C13.60455,7.18333902 10.5591,4.06360976 6.80230714,4.06360976 C3.04545,4.06360976 0,7.18333902 0,11.0318488 Z" id="Fill-1" fill-opacity="0.5" fill="#D49256"></path>
                            <path d="M17.1154071,6.76095366 C17.1154071,3.53326829 14.5611429,0.916704878 11.4102857,0.916704878 C11.3357143,0.916704878 11.2633071,0.91962439 11.1908143,0.922280488 L11.1908143,0.0232243902 C11.2633071,0.0207439024 11.3357143,0.0175609756 11.4102857,0.0175609756 C15.0458786,0.0175609756 17.9931429,3.03670976 17.9931429,6.76095366 L17.1154071,6.76095366 Z M15.5574857,6.76095366 L14.6709643,6.76095366 C14.4513857,4.96319268 12.9595071,3.61422439 11.1908143,3.61404878 L11.1908143,2.71490488 C13.4446714,2.71490488 15.3321429,4.46380244 15.5574857,6.76095366 Z" id="Fill-2" fill="#D49256"></path>
                            <path d="M7.0305,10.7240927 C9.93355714,13.5578634 13.3192714,14.7072073 15.0945,13.9530732 C15.96345,13.5839195 16.47255,13.2513146 16.7358,12.7514195 C17.09565,12.0698122 16.8389143,11.2932 15.9875571,10.4250951 C14.8092429,9.22078537 13.9995429,9.08675122 13.1086714,9.7460561 C13.0341,9.80093415 12.9594214,9.85849024 12.8629286,9.93916098 C12.8650929,9.93626341 12.6807857,10.0894829 12.62595,10.1322659 C12.5864357,10.1652805 12.5447571,10.1976146 12.5030786,10.2295976 C12.3633643,10.3533366 12.2093571,10.4590537 12.0444429,10.5442902 C11.7767571,10.658678 11.3554714,10.4017829 9.60878571,8.9000122 C7.50008571,7.08644634 7.39478571,6.87696585 7.82485714,6.26421951 C7.89726429,6.15900732 7.98942857,6.04977805 8.21543571,5.78206098 C9.16557857,4.63366098 9.26207143,3.65246341 7.99812857,2.36539756 C7.12701429,1.48065366 6.35022857,1.1870561 5.62617857,1.45861463 C5.09513571,1.65670244 4.75279286,2.02712927 4.16475,2.86573171 C3.05667857,4.4451 4.09017857,7.85388293 7.0305,10.7229732 L7.0305,10.7240927 Z M5.90265,2.24286585 C6.28442143,2.09967805 6.75837857,2.27836098 7.42767857,2.95902439 C8.34927857,3.89684634 8.30097857,4.39452439 7.59876429,5.24307073 C7.37721429,5.50202927 7.26310714,5.64067317 7.16652857,5.7771 C6.38755714,6.88546098 6.68597143,7.4735122 9.08873571,9.53993415 C11.1513857,11.3143829 11.6472643,11.6168927 12.3559929,11.3145585 C12.5853429,11.2061634 12.7987929,11.0655439 12.99015,10.8966951 C13.0362643,10.8608707 13.0823143,10.8245854 13.1284286,10.7878829 L13.3675714,10.5912659 C13.4553857,10.5193317 13.5190071,10.4683171 13.5804429,10.4231195 C14.1267857,10.0184927 14.5020429,10.0811634 15.4170214,11.0164829 C16.0402071,11.6533317 16.1763214,12.0642366 16.0227214,12.3548268 C15.8800714,12.6286244 15.4850786,12.8856073 14.7851357,13.1831561 C13.35225,13.7918634 10.2824571,12.7497732 7.58781429,10.1201049 C4.90639286,7.50343171 4.00236429,4.52304878 4.82085,3.35423415 C5.31235714,2.6558122 5.58447857,2.36179756 5.90265,2.24269024 L5.90265,2.24286585 Z" id="Fill-3" fill="#040405"></path>
                        </g>
                    </g>
                </g>
            </g>
        </g>
    </g>
</svg>